<svg width="32" height="32" fill="none" xmlns="http://www.w3.org/2000/svg"><path fill-rule="evenodd" clip-rule="evenodd" d="M5.259 1.25V2.5l-.922.001c-.567 0-1.09.037-1.36.093C1.572 2.889.4 4.062.105 5.469c-.139.658-.139 22.904 0 23.562.295 1.407 1.467 2.58 2.874 2.875.373.078 1.77.092 9.5.093L21.54 32l5.228-5.422 5.229-5.422.003-7.625c.003-8.458.02-8.09-.41-8.969-.316-.645-1.001-1.33-1.647-1.647-.65-.318-1.167-.413-2.265-.414l-.922-.001V0h-2.5v2.5H7.759V0h-2.5v1.25zm0 5V7.5h2.5V5h16.496v2.5h2.5V4.989l.958.021c.9.02.971.03 1.188.178.127.085.308.266.402.4l.17.245.02 1.708.019 1.709H2.509V7.672c0-.874.03-1.68.064-1.806.078-.279.505-.72.772-.798.107-.031.582-.06 1.054-.062L5.26 5v1.25zm24.246 9.313v3.812l-3.172.001c-3.545.001-3.7.015-4.515.414-.645.317-1.33 1.002-1.646 1.648-.402.82-.413.95-.415 4.704v3.36l-8.207-.017-8.206-.016-.231-.157a1.868 1.868 0 01-.402-.4l-.17-.245-.017-8.459-.017-8.458h26.998v3.813zm-1.76 6.363c-.012.028-1.245 1.32-2.74 2.872l-2.718 2.822-.016-2.316c-.01-1.435.008-2.406.047-2.553.077-.287.5-.729.773-.808.244-.07 4.682-.087 4.653-.017z" fill="#205694"/></svg>