<svg width="20" height="20" fill="none" xmlns="http://www.w3.org/2000/svg"><path fill-rule="evenodd" clip-rule="evenodd" d="M9.21.039a10.047 10.047 0 00-7.948 5.096C-.12 7.588-.382 10.592.55 13.28c.492 1.42 1.229 2.607 2.301 3.706a9.988 9.988 0 0011.518 2.008c2.092-1.016 3.83-2.806 4.756-4.899 1.525-3.446 1.032-7.346-1.306-10.322-.55-.699-1.643-1.687-2.405-2.173A10.486 10.486 0 0012.579.353a9.504 9.504 0 00-1.898-.317A7.305 7.305 0 009.21.039zm2.09 1.89c.862.153 1.48.35 2.232.708a8.147 8.147 0 014.592 8.306 8.185 8.185 0 01-14.977 3.53c-.61-.928-1.016-1.975-1.237-3.19-.103-.566-.103-1.99 0-2.556.164-.897.355-1.498.715-2.252 1.22-2.55 3.613-4.25 6.478-4.606.456-.056 1.74-.022 2.197.06zM9.572 3.751a1.125 1.125 0 00-.32.284l-.127.182-.013 2.968c-.01 2.154 0 3.015.036 3.14.041.14.301.422 1.505 1.63 1.55 1.556 1.693 1.671 2.063 1.671a.9.9 0 00.819-1.278c-.063-.14-.428-.534-1.363-1.47L10.896 9.6l-.011-2.688-.012-2.689-.116-.166c-.187-.267-.383-.376-.71-.393-.235-.012-.315.002-.475.087z" fill="#A9AAAE"/></svg>