<svg width="22" height="10" fill="none" xmlns="http://www.w3.org/2000/svg"><path d="M10.95.417L9.86 2.486 8.802 4.555c.758 1.452 1.427 2.711 2.175 4.138l2.175-4.138-1.118-2.07L10.95.418zm10.961 7.052l-.105-.062-.106-.07-.114-.062-.106-.07-.114-.062-.106-.062-.106-.061-.114-.062-.115-.061-.105-.053-.115-.062-.114-.062-.106-.061-.114-.053-.115-.062-.114-.052-.115-.053-.114-.053-.115-.062-.061-.026-1.013 2.21.044.017.106.044.097.053.105.053.097.044.097.053.106.053.097.052.097.044.096.053.106.062.097.053.097.053.097.052.096.053.097.062.097.053.097.052.097.062.097.062.088.053 1.267-2.07-.088-.052zm-4.736-2.157l-.123-.035-.123-.035-.123-.044-.124-.036-.123-.026-.132-.035-.123-.035-.123-.036-.124-.026-.132-.035-.123-.036-.123-.026-.132-.026-.124-.027-.132-.035-.123-.026-.132-.018-.123-.026-.07-.018-.44 2.386.052.009.114.026.115.018.106.026.114.026.114.027.115.026.106.027.114.017.114.036.106.026.114.026.115.036.106.026.105.026.115.036.105.035.115.026.105.035.115.036.044.017.73-2.315-.043-.009-.124-.044zm-10.054-.59l-.132.027-.132.026-.123.018-.132.026-.123.035-.132.027-.124.026-.132.026-.123.036-.123.035-.124.026-.132.036-.123.035-.123.035-.123.026-.124.036-.123.044-.132.035-.114.035-.053.018.73 2.315.036-.018.114-.035.106-.026.106-.035.114-.036.114-.026.106-.026.115-.036.105-.026.115-.026.105-.036.115-.017.114-.027.115-.026.105-.027.115-.026.114-.026.115-.018.114-.026.106-.018.061-.009-.44-2.386-.053.01zm-4.903 1.55l-.115.052-.114.062-.115.053-.114.053-.115.052-.114.062-.115.053-.114.062-.106.061-.114.062-.115.053-.105.061-.115.062-.105.061-.115.062-.105.062-.115.07-.105.062-.106.07-.097.053 1.277 2.069.079-.053.097-.062.088-.052.097-.053.096-.062.097-.053.106-.052.097-.053.097-.053.096-.062.097-.053.097-.044.106-.052.097-.053.096-.053.106-.044.097-.053.106-.053.096-.044.106-.044.053-.026L2.27 6.254l-.052.018z" fill="#fff"/></svg>