<svg width="22" height="10" fill="none" xmlns="http://www.w3.org/2000/svg"><path d="M10.95 9.174l-1.09-2.07-1.058-2.067C9.56 3.583 10.23 2.324 10.977.898l2.175 4.138-1.118 2.069-1.083 2.069zm10.961-7.052l-.105.062-.106.07-.114.062-.106.07-.114.062-.106.061-.106.062-.114.062-.115.061-.105.053-.115.062-.114.061-.106.062-.114.053-.115.061-.114.053-.115.053-.114.053-.115.062-.061.026-1.013-2.21.044-.017.106-.044.097-.053.105-.053.097-.044.097-.053.106-.053.097-.053.097-.044.096-.052.106-.062.097-.053.097-.053.097-.053.096-.052.097-.062.097-.053.097-.053.097-.061.097-.062.088-.053 1.267 2.07-.088.052zm-4.736 2.157l-.123.035-.123.035-.123.044-.124.035-.123.027-.132.035-.123.035-.123.036-.124.026-.132.035-.123.035-.123.027-.132.026-.124.027-.132.035-.123.026-.132.018-.123.026-.07.018-.44-2.386.052-.009.114-.026.115-.018.106-.026.114-.027.114-.026.115-.026.106-.027.114-.017.114-.036.106-.026.114-.027.115-.035.106-.026.105-.027.115-.035.105-.035.115-.026.105-.036.115-.035.044-.017.73 2.315-.043.009-.124.044zm-10.054.59l-.132-.027-.132-.026-.123-.018-.132-.026-.123-.035-.132-.027-.124-.026-.132-.027-.123-.035-.123-.035-.124-.026-.132-.036-.123-.035-.123-.035-.123-.027-.124-.035-.123-.044-.132-.035-.114-.035-.053-.018.73-2.315.036.017.114.036.106.026.106.035.114.035.114.027.106.026.115.035.105.027.115.026.105.035.115.018.114.027.115.026.105.026.115.027.114.026.115.018.114.026.106.018.061.009-.44 2.385-.053-.008zM2.218 3.32l-.115-.054-.114-.061-.115-.053-.114-.053-.115-.053-.114-.061-.115-.053-.114-.062-.106-.061-.114-.062-.115-.053-.105-.061-.115-.062-.105-.062-.115-.061-.105-.062-.115-.07-.105-.062-.106-.07-.097-.053L1.276.06l.079.054.097.061.088.053.097.053.096.062.097.052.106.053.097.053.097.053.096.062.097.052.097.044.106.053.097.053.096.053.106.044.097.053.106.053.096.044.106.044.053.026-1.013 2.2-.052-.017z" fill="#fff"/></svg>