<svg width="44" height="37" fill="none" xmlns="http://www.w3.org/2000/svg"><path fill-rule="evenodd" clip-rule="evenodd" d="M12.317.108c-2.244.428-4.177 1.69-5.404 3.529-2.155 3.227-1.77 7.355.954 10.238l.548.58-.964.482a13.2 13.2 0 00-1.702 1.039l-.738.557-2.113.026c-2.359.029-2.4.039-2.739.67-.148.276-.159.56-.159 4.017 0 3.254.017 3.756.14 4.013.17.358.532.627.931.692l.3.048.023 5.087c.023 4.985.027 5.091.201 5.324.097.13.284.316.414.413l.238.177h39.502l.238-.177c.13-.097.317-.283.414-.413.174-.233.178-.339.2-5.324l.024-5.087.3-.048c.4-.065.761-.334.932-.692.122-.257.139-.76.139-4.014 0-5.027.234-4.648-2.898-4.686l-2.113-.026-.738-.554a11.52 11.52 0 00-1.275-.832c-.296-.153-.535-.297-.532-.32.004-.024.236-.228.517-.454 1.19-.958 2.287-2.729 2.67-4.307.377-1.56.224-3.501-.397-5.026-.835-2.053-2.762-3.868-4.866-4.585-4.658-1.585-9.51 1.108-10.708 5.945-.1.403-.142.94-.14 1.779 0 1.014.036 1.329.222 2.026a8.584 8.584 0 001.443 2.927l.507.665h-2.962c-1.63 0-2.962-.02-2.962-.045 0-.025.208-.317.462-.65C23.81 8.404 21.347 1.6 15.553.2 14.77.01 13.08-.038 12.317.108zm3.064 2.71c.913.303 1.625.747 2.323 1.45 2.678 2.698 1.917 7.185-1.513 8.91-1.232.62-2.828.749-4.12.332-2.643-.854-4.31-3.456-3.908-6.105.371-2.446 2.087-4.236 4.56-4.757.62-.13 2.023-.04 2.658.17zm17.415-.123c1.993.41 3.521 1.78 4.205 3.769.2.583.236.827.237 1.629.003 1.448-.385 2.564-1.254 3.616-.749.905-1.958 1.662-3.073 1.925-.607.142-1.885.142-2.492 0-1.554-.366-3.03-1.522-3.74-2.93-.473-.936-.593-1.462-.59-2.568.003-.832.04-1.095.233-1.68a5.606 5.606 0 016.474-3.762zm-8.977 14.403c-1.664 1.754-2.63 3.71-2.985 6.049-.098.642-.124 1.927-.124 6.07v5.254l-5.608-.022-5.607-.022-.043-3.045c-.04-2.809-.055-3.064-.206-3.286-.532-.784-1.738-.677-2.178.194-.19.375-.194.446-.194 3.281v2.899H3.953v-8.492l.666-.002c2.096-.004 3.838-1.195 4.574-3.13.304-.8.34-2.049.082-2.914a5.025 5.025 0 00-1.13-1.955l-.306-.324.378-.221c.64-.375 1.581-.733 2.35-.895.668-.14 1.319-.155 7.337-.16l6.605-.006-.69.727zm9.448-.592c.813.154 1.788.51 2.467.9.45.259.456.268.277.393-.383.268-1.039 1.338-1.266 2.066-.198.632-.219.816-.18 1.591.065 1.361.473 2.265 1.45 3.22.847.829 2.06 1.298 3.362 1.3l.666.002v8.492h-2.921v-2.9c0-2.835-.005-2.906-.194-3.28-.358-.71-1.147-.93-1.826-.51-.517.32-.511.281-.558 3.6l-.043 3.046-5.607.022-5.607.022v-5.222c0-5.729.023-6.054.512-7.393.988-2.703 3.316-4.732 6.105-5.32.93-.196 2.415-.209 3.363-.03zM5.633 19.32c1.657.77 1.657 3.112 0 3.882-.396.184-.55.202-1.745.202l-1.31.001v-4.289l1.31.001c1.195.001 1.35.019 1.745.203zm35.785 1.94v2.145h-1.31c-1.195-.001-1.349-.02-1.745-.203-.995-.463-1.467-1.555-1.142-2.64.142-.47.634-1.006 1.142-1.242.396-.184.55-.202 1.745-.203h1.31v2.144z" fill="#205694"/></svg>