<svg width="32" height="43" fill="none" xmlns="http://www.w3.org/2000/svg"><path fill-rule="evenodd" clip-rule="evenodd" d="M14.851.12c-.805.178-1.777.708-2.422 1.32l-.556.53-.583-.156c-1.045-.28-2.347-.084-3.323.502-.881.528-1.646 1.5-1.991 2.53-.267.794-.268 2.092-.003 2.882a4.713 4.713 0 001.784 2.383l.44.298.028 4.472c.027 4.288.035 4.499.207 5.126.38 1.39 1.125 2.71 2.086 3.694l.56.572v1.758H9.933c-1.337 0-2.139.1-3.114.39-3.546 1.052-6.223 4.22-6.732 7.963-.05.376-.087 2.11-.087 4.131 0 3.326.007 3.499.165 3.815.107.214.28.392.49.5C.974 43 1.106 43 16 43s15.025-.001 15.346-.17c.209-.108.383-.286.49-.5.157-.316.165-.489.164-3.8 0-3.844-.06-4.555-.488-5.865-1.128-3.446-3.973-5.923-7.473-6.504-.437-.073-1.289-.13-1.946-.13h-1.17v-1.758l.56-.572c.962-.986 1.685-2.265 2.076-3.676.181-.653.187-.796.216-5.135l.03-4.463.443-.312a4.773 4.773 0 001.78-2.387c.264-.79.263-2.088-.003-2.882-.346-1.03-1.11-2.002-1.991-2.53-.977-.586-2.279-.783-3.324-.502l-.582.156-.557-.53a5.233 5.233 0 00-4.72-1.32zm2.319 2.664c.507.238 1.118.81 1.335 1.25.454.92 1.18 1.132 2.014.59.71-.46 1.223-.539 1.923-.295.756.265 1.353 1.129 1.353 1.961 0 .736-.528 1.588-1.15 1.857-1.242.537-1.263.574-1.296 2.265l-.027 1.339H10.667V10.53c0-1.624-.114-1.893-.934-2.211-.912-.355-1.428-.992-1.51-1.864-.11-1.184.893-2.28 2.069-2.258.393.007.677.112 1.236.455.735.451 1.38.315 1.822-.385.616-.975 1-1.323 1.772-1.605.595-.218 1.43-.168 2.048.122zm4.162 13.65c-.002 2.51-.069 2.979-.584 4.053-.48 1.002-1.39 1.933-2.368 2.425-1.58.794-3.18.794-4.76 0-.978-.492-1.888-1.423-2.368-2.425-.515-1.074-.582-1.542-.584-4.053l-.001-2.163h10.667l-.002 2.163zM16 25.974c1.038 0 1.383-.031 1.874-.173l.602-.174-.028 1.357c-.025 1.161-.054 1.413-.2 1.74a2.456 2.456 0 01-1.166 1.231c-.385.193-.574.235-1.082.235-1.026 0-1.82-.519-2.247-1.466-.147-.327-.176-.579-.2-1.74l-.028-1.357.602.174c.49.142.835.174 1.873.174zm-4.697 3.186c.64 2.202 2.746 3.709 4.984 3.566.361-.023.722-.069.8-.101.136-.056.144.163.144 3.898v3.957H8.205v-1.683c0-1.522-.016-1.716-.165-2.015-.186-.373-.658-.67-1.066-.67-.407 0-.88.297-1.065.67-.15.3-.165.493-.165 2.015v1.683H2.449l.031-3.003c.032-2.982.034-3.009.254-3.743.714-2.381 2.408-4.155 4.625-4.844.86-.268 1.251-.318 2.573-.329l1.194-.01.177.61zm13.174-.324c2.37.727 4.055 2.45 4.79 4.898.22.734.222.761.253 3.743l.032 3.003h-3.295v-1.683c0-1.522-.016-1.716-.165-2.015-.186-.373-.659-.67-1.066-.67-.407 0-.88.297-1.066.67-.149.3-.165.493-.165 2.015v1.683h-4.102v-9.408l.286-.408a5.54 5.54 0 00.788-1.724l.099-.409 1.444.042c1.25.036 1.542.071 2.167.263zm-10.712 6.609c-.346.187-.637.683-.637 1.087 0 .417.29.9.655 1.09.178.094.437.17.576.17.624 0 1.231-.621 1.231-1.26 0-.417-.29-.901-.654-1.091-.405-.211-.775-.21-1.17.004z" fill="#205694"/></svg>