<svg width="80" height="80" fill="none" xmlns="http://www.w3.org/2000/svg"><circle cx="40" cy="40" r="40" fill="#fff"/><path fill-rule="evenodd" clip-rule="evenodd" d="M55.525 22.083c-.266.122-.568.477-.758.89-.117.258-.145.457-.145 1.057 0 .407.024.827.053.935.051.187.045.193-.14.141-.107-.03-.525-.053-.928-.053-.6 0-.793.027-1.057.15-1.061.49-1.493 1.58-1.21 3.053l.035.178-.928-.002c-.876-.001-.95.01-1.325.195-.43.213-.736.519-.983.985-.142.268-.157.395-.157 1.27v.973l-.24-.045c-.371-.07-1.281-.054-1.585.029-.673.182-1.26.761-1.46 1.44-.114.384-.133 1.17-.04 1.653.055.288.05.303-.09.268-.477-.118-1.224-.126-1.653-.016-.791.2-1.255.633-1.305 1.216-.04.457.137.783.54.99.397.206.579.2 1.032-.03.363-.186.383-.188.874-.1 1.38.245 1.671.244 2.162-.004a1.43 1.43 0 00.453-.422c.242-.37.286-.983.13-1.81-.142-.753-.144-1.128-.006-1.181.058-.023.5.03.984.116.962.172 1.33.158 1.77-.068.438-.225.705-.718.705-1.301 0-.16-.065-.65-.145-1.089-.08-.438-.127-.84-.107-.895.05-.133.518-.127 1.203.016 1.097.229 1.878.018 2.183-.59.217-.43.24-.782.105-1.54a8.336 8.336 0 01-.127-1.012c-.003-.307.004-.317.227-.339.126-.012.467.028.758.088.73.152 1.453.142 1.82-.026.46-.21.68-.607.71-1.275a4.947 4.947 0 00-.087-1.087c-.15-.732-.142-.987.042-1.237.204-.279.21-.834.013-1.101-.331-.447-.882-.622-1.323-.42zm-14.222.84a1.143 1.143 0 00-.373.493c-.12.293-.127.373-.053.667.167.66.224 1.507.15 2.246-.198 1.983-.979 3.606-2.613 5.43-.492.55-.567.718-.51 1.144a.975.975 0 00.642.812c.542.208.748.12 1.47-.627 2.192-2.273 3.368-5.368 3.106-8.177-.08-.864-.208-1.434-.38-1.698-.294-.452-.993-.593-1.44-.29zm5.545 2.097c-.899.191-1.108 1.414-.326 1.902.42.261 1.097.13 1.385-.267.205-.283.231-.87.052-1.16a1.03 1.03 0 00-1.111-.476zM36.13 26.654c-.857.577-.462 1.899.566 1.899.56 0 .968-.375 1.025-.942a1.007 1.007 0 00-1.025-1.117.963.963 0 00-.566.16zm-4.766 5.534c-.108.072-.24.193-.292.27-.053.075-2.115 5.554-4.582 12.173-3.525 9.461-4.486 12.107-4.49 12.37-.006.363.123.599.468.858.44.33-.007.483 12.83-4.374 10.713-4.053 11.94-4.533 12.17-4.757.318-.312.4-.685.236-1.083-.081-.2-2.095-2.275-7.499-7.726-4.063-4.1-7.51-7.545-7.66-7.658-.333-.25-.865-.283-1.18-.073zm22.907.292a1.004 1.004 0 00-.816 1.018c0 .607.421 1.024 1.034 1.023.606 0 1.004-.405 1.004-1.02 0-.684-.572-1.161-1.222-1.02zm-17.538 7.71c.39 3.032 1.59 6.139 3.297 8.537.203.286.37.53.37.542 0 .065-4.405 1.673-4.492 1.64-.175-.069-1.23-1.39-1.802-2.258-1.46-2.215-2.356-4.636-2.728-7.37-.05-.368-.093-1.303-.094-2.077l-.003-1.408.52-1.395.52-1.395 2.151 2.17 2.152 2.169.108.845zm16.175-3.442c-1.528.286-2.244.518-3.36 1.09-.92.471-1.776 1.067-2.669 1.858-.687.608-.83.829-.83 1.277 0 .595.426 1.024 1.017 1.024.398 0 .499-.059 1.17-.682 1.02-.945 2.351-1.75 3.544-2.14 1.126-.367 2.525-.46 3.651-.243.695.134.876.105 1.213-.193a1.005 1.005 0 00.007-1.528c-.364-.323-1.03-.454-2.415-.477-.634-.01-1.232-.004-1.328.014zm-8.16 10.877c-.069.062-2.134.838-2.231.838-.042 0-.281-.277-.531-.616a16.98 16.98 0 01-2.75-5.756c-.02-.078 1.223 1.126 2.763 2.674 1.54 1.548 2.777 2.835 2.75 2.86zm-15.107-4.124c.547 2.569 1.924 5.45 3.627 7.588.271.34.493.642.492.669 0 .027-.96.41-2.134.851-1.857.698-2.144.788-2.218.695-1.1-1.388-1.536-2.033-2.127-3.15l-.353-.67 1.143-3.063 1.258-3.366c.063-.167.125-.293.139-.28.013.014.09.34.173.726zm22.988-.521c-.722.289-.892 1.231-.316 1.741.71.628 1.713.146 1.713-.822 0-.679-.756-1.176-1.398-.92zm-26.271 9.744c.2.31.519.763.71 1.008.19.246.336.456.323.466-.051.044-2.523.959-2.539.94-.024-.029 1.098-3.022 1.123-2.997.01.011.183.273.383.583z" fill="#205694"/></svg>