<svg width="80" height="80" fill="none" xmlns="http://www.w3.org/2000/svg"><circle cx="40" cy="40" r="40" fill="#fff"/><path fill-rule="evenodd" clip-rule="evenodd" d="M27.527 28.07c-.446.13-.878.754-.877 1.267.001.535.056.603 2.445 3.01l2.3 2.319-2.3 2.318c-1.931 1.946-2.311 2.36-2.372 2.584-.04.147-.073.785-.073 1.418v1.15l-.814.002c-.646 0-.87.027-1.083.124-.325.148-.6.461-.697.794-.049.169-.065 1.488-.051 4.15l.02 3.902.158.254c.086.14.279.336.427.434l.27.179 10.8.02c7.55.014 11.021-.002 11.532-.053 1.475-.15 2.67-.492 4.053-1.161 3.746-1.815 6.23-5.39 6.68-9.612.148-1.388.009-1.942-.58-2.31-.24-.15-.322-.159-1.516-.179l-1.262-.02-2.592-2.591c-2.186-2.186-2.632-2.603-2.856-2.664-.168-.046-1.123-.073-2.59-.073h-2.323l-2.593-2.596c-2.189-2.19-2.634-2.606-2.859-2.667-.34-.093-10.926-.091-11.247.002zm11.58 3.928l1.327 1.334h-6.577l-1.328-1.334-1.327-1.335h6.577l1.327 1.335zm10.364 5.336l1.327 1.334h-2.324c-1.482 0-2.421.027-2.59.074-.22.06-.559.365-1.93 1.734l-1.664 1.66H29.307V40.57l2.275-2.285L33.857 36h14.286l1.328 1.334zm5.747 4.16c0 .28-.317 1.421-.561 2.025-.496 1.222-1.228 2.284-2.24 3.253-1.263 1.21-2.69 1.966-4.494 2.382l-.645.148-10.314.02-10.315.021v-4.537l8.288-.017 8.289-.018.265-.145c.147-.08.968-.853 1.827-1.718l1.56-1.572h8.34v.158z" fill="#205694"/></svg>