<svg width="80" height="80" fill="none" xmlns="http://www.w3.org/2000/svg"><circle cx="40" cy="40" r="40" fill="#fff"/><path fill-rule="evenodd" clip-rule="evenodd" d="M55.197 31.485v9.485l-.472.254a4.73 4.73 0 00-.916.704 3.68 3.68 0 00-.72 4.157c.258.554 1.11 1.43 1.666 1.715l.402.205.021 2.584c.017 2.093-.002 2.676-.1 3.063-.294 1.158-1.225 1.88-2.415 1.87-.861-.006-1.676-.53-2.107-1.357-.212-.405-.215-.436-.24-2.256-.014-1.015-.009-1.845.012-1.845.021 0 .275.108.565.239.29.131.545.211.566.177.02-.035.24-.534.486-1.111.344-.804.425-1.065.346-1.116-.057-.036-1.061-.48-2.23-.987l-2.128-.92-.02 3.699c-.024 4.12-.016 4.204.509 5.262a4.788 4.788 0 002.521 2.322c1.372.548 2.634.49 3.98-.18 1.114-.555 2.037-1.652 2.46-2.924.165-.497.177-.7.204-3.53l.028-3.004.453-.24c.874-.462 1.564-1.353 1.822-2.354.413-1.604-.367-3.373-1.824-4.135l-.46-.242-.001-9.51V22h-2.408v9.485zm-22.043-4.377c-.765.164-5.051 1.753-5.025 1.864.011.048.885 1.397 1.942 2.998l1.92 2.91-.424.856c-.233.47-.613 1.42-.844 2.11l-.42 1.253-.656-.246c-1.552-.58-1.978-.708-2.625-.79-1.067-.132-2.236.068-3.168.544-.456.234-4.857 3.187-4.854 3.259 0 .025 1.997.974 4.434 2.108 2.439 1.135 4.456 2.084 4.484 2.11.028.025.135 2.247.238 4.936.103 2.69.211 4.929.24 4.976.086.14 4.605-2.951 5.155-3.526 1.191-1.246 1.655-2.664 1.66-5.073v-.842l.623.05c2.254.18 3.302.137 4.956-.199 4.944-1.005 9.132-4.617 10.9-9.4.6-1.625.961-3.588.972-5.274.007-.987 0-1.029-.255-1.552-.453-.931-1.081-1.459-2.166-1.817-.854-.283-2.332-.666-2.977-.773-1.579-.261-3.647-.225-5.275.092-.91.177-2.555.696-3.101.977l-.314.162-.385-.349c-.541-.49-1.303-.925-2.054-1.173-.526-.174-.825-.217-1.646-.237-.552-.014-1.152.007-1.335.046zm2.573 2.664c.29.137.528.283.528.325 0 .041-.208.232-.462.423-.253.191-.88.762-1.39 1.27l-.93.922-.816-1.242c-.45-.683-.816-1.265-.816-1.292 0-.045 1.434-.576 1.805-.668.089-.022.474-.028.857-.014.577.022.787.069 1.224.276zm10.933.22c.792.12 2.928.68 3.249.854.082.044.208.195.279.333.114.223.118.365.034 1.194-.12 1.2-.345 2.388-.608 3.213-.272.856-1.04 2.445-1.546 3.2-.418.622-1.26 1.62-1.63 1.931l-.21.177-1.275-.699c-2.03-1.114-2.641-1.59-3.48-2.715a7.821 7.821 0 01-1.518-3.881c-.092-.833-.022-2.692.104-2.778.225-.155 1.92-.652 2.688-.789 1.077-.191 2.784-.209 3.913-.04zm-9.176 3.274c.091 1.61.464 2.957 1.24 4.486.017.03-.494.409-1.134.84l-1.163.783.656 1.004c.442.675.694.99.77.962.063-.023.593-.37 1.179-.77.586-.4 1.087-.727 1.114-.727.027 0 .32.24.654.533.672.593 1.578 1.206 2.578 1.746.364.196.662.387.662.423 0 .098-1.548.82-2.287 1.066a12.61 12.61 0 01-4.996.613c-2.075-.154-5.358-.421-5.374-.437-.026-.025 1.786-5.638 1.972-6.112.454-1.151 1.292-2.525 2.167-3.55.439-.515 1.747-1.737 1.864-1.742.027-.001.07.396.098.882zm6.115-.185a54.87 54.87 0 01-.992.672c-.083.05.051.308.566 1.087l.676 1.023.959-.645c.527-.355.97-.68.983-.722.021-.064-1.237-2.042-1.29-2.028-.01.003-.416.278-.902.613zm-15.25 7.894c.618.234 1.139.44 1.157.457.051.052-.659 2.305-.726 2.305-.12 0-4.805-2.215-4.805-2.271 0-.114.88-.646 1.339-.81.375-.134.609-.16 1.189-.136.633.027.861.084 1.846.455zm28.512 2.435c.366.168.632.525.712.955.036.19-.004.371-.14.648-.58 1.176-2.237.794-2.236-.515 0-.512.205-.848.653-1.072.427-.214.575-.216 1.01-.016zM32 46.318l.763.056.023.51c.014.282-.01.944-.05 1.474-.083 1.052-.264 1.59-.743 2.201-.28.357-1.255 1.095-1.337 1.012-.044-.044-.238-3.869-.256-5.05l-.005-.339.421.04c.232.023.765.066 1.184.096z" fill="#205694"/></svg>