<svg width="23" height="30" fill="none" xmlns="http://www.w3.org/2000/svg"><path fill-rule="evenodd" clip-rule="evenodd" d="M10.563.024c-.1.017-.408.068-.685.112C9.6.181 9.04.326 8.632.46 5.489 1.484 3.178 4.031 2.44 7.283c-.15.663-.17 2.722-.034 3.56.428 2.639 1.543 5.591 3.097 8.203l.502.842-.37.088c-.684.162-2 .646-2.667.981C1.57 21.66.743 22.39.278 23.334.008 23.88 0 23.92 0 24.662c0 .736.01.785.266 1.302.868 1.754 3.455 3.11 7.072 3.707 1.515.25 2.52.329 4.162.329 5.583 0 10.028-1.595 11.231-4.029.26-.525.269-.572.269-1.31 0-.741-.008-.781-.278-1.327-.466-.944-1.293-1.675-2.69-2.377-.667-.335-1.983-.82-2.666-.981l-.37-.088.5-.842c2.468-4.145 3.679-8.808 3.056-11.763-.74-3.508-3.508-6.27-7.105-7.09-.588-.134-2.452-.243-2.884-.169zm2.115 2.377c.74.13 1.617.438 2.253.795 1.56.872 2.835 2.502 3.275 4.184.847 3.238-1.105 8.965-4.49 13.168-.588.73-2.077 2.237-2.211 2.237-.137 0-1.634-1.507-2.219-2.234-3.373-4.19-5.336-9.924-4.501-13.142.881-3.394 4.388-5.62 7.893-5.008zm-2.035 3.47c-1.828.491-2.96 2.386-2.493 4.175.482 1.854 2.372 2.997 4.176 2.527 1.847-.482 2.994-2.375 2.527-4.17-.486-1.87-2.399-3.02-4.21-2.533zm1.313 2.293c.741.31.922 1.281.346 1.858-.468.468-1.136.468-1.604 0-.891-.892.093-2.346 1.258-1.858zm-3.921 14.44c.688.802 1.647 1.712 2.386 2.262.917.684 1.24.683 2.17-.006.622-.461 1.927-1.715 2.564-2.463l.361-.424.74.159c2.061.441 3.934 1.383 4.347 2.184.12.235.127.304.05.539-.297.898-2.283 1.89-4.802 2.4-1.993.403-5.074.518-7.055.264-3.235-.415-5.858-1.452-6.375-2.52-.204-.422-.148-.636.278-1.062.658-.658 2.004-1.296 3.543-1.679.9-.224 1.007-.248 1.154-.258.062-.005.35.267.639.605z" fill="#fff"/></svg>