<svg width="20" height="22" fill="none" xmlns="http://www.w3.org/2000/svg"><path fill-rule="evenodd" clip-rule="evenodd" d="M9.082.047c-2.053.22-4.021 1.214-5.34 2.698-1.575 1.772-2.238 4.086-1.81 6.31.447 2.32 2.083 5.047 4.738 7.9.907.975 3.176 3.073 3.323 3.073.08 0 1.334-1.097 2.077-1.817 3.957-3.834 6.113-7.531 6.116-10.487a7.784 7.784 0 00-.415-2.415c-.172-.505-.642-1.404-.989-1.892-1.675-2.364-4.705-3.69-7.7-3.37zm2.194 1.8c1.27.252 2.255.761 3.201 1.654.588.555.874.924 1.219 1.57.459.861.645 1.632.642 2.665-.002.814-.085 1.271-.381 2.113-.763 2.162-2.78 4.904-5.418 7.364l-.553.516-.85-.818c-1.357-1.305-2.385-2.48-3.326-3.802-1.11-1.56-1.755-2.878-2.062-4.218-.144-.629-.145-1.711 0-2.345a5.985 5.985 0 01.995-2.216c.277-.391.976-1.082 1.397-1.38a6.825 6.825 0 013.042-1.184c.5-.064 1.575-.022 2.094.081zm-2.07 1.656A4.682 4.682 0 006.78 4.704c-1.777 1.678-1.777 4.386 0 6.064.57.537 1.362.96 2.145 1.145.545.128 1.509.137 2.046.02 2.887-.631 4.405-3.626 3.092-6.101-.605-1.14-1.694-1.964-3.001-2.27-.49-.115-1.383-.143-1.856-.059zm1.442 1.74a2.54 2.54 0 011.258.686c.394.373.596.702.728 1.188.164.608.078 1.27-.24 1.836-.196.352-.748.873-1.113 1.053a2.895 2.895 0 01-1.945.224 2.54 2.54 0 01-1.258-.687c-.394-.373-.596-.702-.728-1.188a2.463 2.463 0 01.238-1.836c.194-.349.746-.87 1.116-1.053a2.889 2.889 0 011.944-.224zM2.64 16.122c-.965.334-1.832.844-2.2 1.294a3.09 3.09 0 00-.313.486c-.11.223-.127.308-.127.664 0 .357.016.441.127.665.432.874 1.456 1.503 3.264 2.004 2.61.724 6.484.958 9.88.597 4.125-.439 6.571-1.567 6.721-3.099.104-1.066-.825-1.981-2.653-2.612l-.37-.128-.282.818c-.155.45-.276.822-.268.828.008.005.148.054.311.109.473.158 1.053.45 1.275.641l.205.177-.195.168c-1.028.887-4.457 1.55-8.023 1.55-3.543.002-6.999-.666-8.022-1.55l-.195-.168.204-.177c.222-.191.803-.483 1.275-.641a6.26 6.26 0 00.31-.11c.014-.008-.53-1.617-.552-1.635a4.388 4.388 0 00-.372.12z" fill="#A9AAAE"/></svg>