<svg width="32" height="32" fill="none" xmlns="http://www.w3.org/2000/svg"><path fill-rule="evenodd" clip-rule="evenodd" d="M4.331.08C2.085.536.413 2.275.063 4.52.005 4.892-.01 7.938.006 16.307c.022 12.32-.008 11.35.386 12.402.442 1.183 1.74 2.481 2.924 2.925 1.046.392.122.366 12.697.366 12.574 0 11.65.026 12.696-.366 1.185-.444 2.482-1.741 2.925-2.926.392-1.047.366-.122.366-12.702 0-10.55-.01-11.553-.112-11.92-.196-.707-.389-1.15-.716-1.65-.759-1.158-1.74-1.865-3.21-2.31C27.625.022 26.636.012 16.18.001 6.945-.007 4.682.008 4.33.08zm23.127 2.139c1.193.31 2.147 1.315 2.37 2.495.04.207.069 1.5.069 3.054 0 2.531-.007 2.696-.118 2.696-.112 0-26.978-3.827-27.434-3.908l-.216-.038v-.784c0-1.228.239-1.916.911-2.62a3.321 3.321 0 011.499-.892c.558-.15 22.343-.153 22.919-.003zM8.032 9.529c3.08.44 5.614.815 5.632.833.024.024-3.32 16.926-3.803 19.217l-.067.317H7.439c-1.323 0-2.513-.03-2.714-.068-.871-.165-1.777-.826-2.186-1.593-.433-.812-.41-.252-.41-10.34V8.728h.152c.084 0 2.672.36 5.751.8zm14.724 2.103c3.726.532 6.857.985 6.957 1.007l.184.04v7.13c0 4.463-.025 7.265-.067 7.49-.226 1.221-1.3 2.296-2.53 2.529-.57.108-15.292.093-15.292-.016 0-.046.856-4.366 1.902-9.599a7002.99 7002.99 0 001.902-9.532c0-.038.44.022 6.944.95zM21.62 12.84c-1.58.291-2.793.926-3.76 1.97-1.857 2-2.223 4.86-.939 7.339.321.62 4.58 6.25 4.921 6.504.264.197.893.197 1.158 0 .332-.249 4.593-5.882 4.918-6.504 1.288-2.458.92-5.34-.936-7.34-1.174-1.265-2.622-1.92-4.36-1.974-.46-.014-.91-.012-1.002.005zm1.752 2.226a4.145 4.145 0 013.082 3.227c.13.63.132.965.01 1.6-.115.604-.352 1.205-.643 1.628-.45.654-3.345 4.4-3.4 4.4-.056 0-2.95-3.746-3.4-4.4-.29-.423-.529-1.024-.644-1.627-.122-.636-.12-.97.01-1.601.479-2.315 2.765-3.795 4.985-3.227zm-1.452 2.066a2.27 2.27 0 00-1.435 1.177c-.226.459-.232 1.32-.012 1.772.229.472.5.756.958 1.003.387.209.47.228.99.226.482-.001.618-.028.908-.178.503-.262.713-.464.965-.933.207-.384.227-.47.227-.988 0-.52-.02-.604-.228-.99-.375-.696-.955-1.07-1.731-1.116-.243-.014-.532-.002-.642.027z" fill="#205694"/></svg>