<svg width="20" height="20" fill="none" xmlns="http://www.w3.org/2000/svg"><path fill-rule="evenodd" clip-rule="evenodd" d="M9.545.094a.787.787 0 00-.294.244C9.2.418 8.464 1.886 7.618 3.6 6.772 5.315 6.07 6.717 6.057 6.717c-.013 0-.507-.795-1.098-1.766-.59-.972-1.13-1.822-1.2-1.89a.827.827 0 00-.545-.213c-.18 0-.5.18-.61.343C2.407 3.485.068 7.912.025 8.074c-.085.317.093.712.382.849.318.15.668.107.895-.111.078-.075.471-.77 1.036-1.831.501-.941.923-1.718.938-1.727.02-.013 1.889 3.003 1.95 3.145.005.015-1.152 2.382-2.573 5.26-1.42 2.878-2.604 5.308-2.628 5.4a.58.58 0 00.005.35c.092.346.33.547.697.588.228.026.553-.133.684-.333.053-.08.954-1.888 2.003-4.016a438.863 438.863 0 011.932-3.895c.013-.014.352.505.752 1.153.816 1.323.878 1.393 1.262 1.424.255.021.525-.09.66-.27.045-.064.516-.96 1.045-1.993.529-1.033.975-1.882.992-1.885.016-.003.248.399.515.893.3.557.53.939.605 1.003.235.2.57.235.877.089.289-.137.466-.532.381-.849-.07-.26-1.72-3.297-1.872-3.445a.827.827 0 00-.548-.218c-.158 0-.49.172-.585.303-.043.06-.525.982-1.071 2.051-.546 1.07-1.006 1.931-1.022 1.915-.016-.016-.284-.44-.595-.944l-.566-.913.088-.18C7.747 6.852 9.91 2.508 9.93 2.528c.014.015 1.955 3.86 4.314 8.547 2.36 4.687 4.33 8.575 4.38 8.642.267.36.933.36 1.208 0a.816.816 0 00.148-.659c-.025-.091-1.225-2.507-2.666-5.368-1.442-2.861-2.621-5.222-2.621-5.247 0-.024.252-.537.56-1.14.54-1.053.564-1.094.62-1.008.031.05.652 1.16 1.38 2.47.81 1.455 1.374 2.428 1.454 2.506.23.223.57.267.891.114.288-.137.466-.532.382-.847-.065-.243-3.495-6.39-3.66-6.56a.802.802 0 00-.557-.23c-.154 0-.424.129-.542.256-.054.058-.392.683-.751 1.39-.36.706-.663 1.284-.675 1.283-.011 0-.733-1.42-1.604-3.153C11.058 1.268 10.57.332 10.47.23c-.243-.248-.598-.3-.925-.137z" fill="#A9AAAE"/></svg>