<svg width="38" height="38" fill="none" xmlns="http://www.w3.org/2000/svg"><path fill-rule="evenodd" clip-rule="evenodd" d="M17.66.019l-.968.107C14.238.392 11.52 1.313 9.327 2.62a19.231 19.231 0 00-6.725 6.722c-1.298 2.174-2.16 4.7-2.512 7.362-.12.91-.12 3.699 0 4.61.352 2.661 1.214 5.188 2.512 7.362a19.231 19.231 0 006.725 6.722c2.175 1.297 4.703 2.16 7.365 2.51.912.121 3.701.121 4.613 0 4.631-.611 8.558-2.645 11.762-6.091 1.773-1.907 3.16-4.28 4.011-6.86.67-2.034.922-3.653.922-5.948 0-1.698-.072-2.448-.377-3.941-1.045-5.12-4.335-9.695-8.953-12.448-2.153-1.285-4.72-2.164-7.291-2.5-.652-.084-3.258-.156-3.72-.102zm3.98 2.403c1.777.297 3.09.715 4.686 1.49 2.134 1.038 4.025 2.5 5.485 4.242 3.873 4.62 5.01 10.798 3.032 16.47-.587 1.68-1.787 3.756-3.032 5.242-2.764 3.297-6.951 5.476-11.288 5.873-4.447.408-8.897-1.002-12.385-3.923-3.299-2.762-5.479-6.948-5.876-11.282-.408-4.446 1.002-8.894 3.924-12.38 2.208-2.634 5.446-4.64 8.801-5.453a22.57 22.57 0 012.673-.45c.8-.073 3.112.027 3.98.171zm-9.174 5.253c-.69.186-1.057.465-2.471 1.884-1.27 1.273-1.404 1.434-1.688 2.015-.412.844-.542 1.36-.594 2.37-.319 6.194 7.088 14.65 14.187 16.193.866.188 2.73.19 3.422.003a5.428 5.428 0 001.842-.894c.772-.597 2.711-2.646 2.943-3.11.302-.606.4-1.27.286-1.933-.157-.918-.406-1.28-1.944-2.82-1.15-1.153-1.46-1.423-1.866-1.62-.69-.337-1.34-.425-2.056-.279-.748.152-1.198.436-2.046 1.287l-.691.694-2.62-2.619-2.62-2.618.76-.784c.85-.878 1.12-1.333 1.238-2.087a3.281 3.281 0 00-.307-1.931c-.194-.404-.462-.713-1.616-1.868-1.082-1.083-1.48-1.434-1.83-1.608-.776-.389-1.562-.481-2.33-.275zm1.153 2.193c.115.043.754.62 1.42 1.282 1.746 1.739 1.745 1.715.125 3.324-.597.593-1.133 1.169-1.192 1.28-.138.26-.136.681.006.98.062.13 1.71 1.83 3.664 3.779 3.114 3.106 3.585 3.548 3.83 3.593.614.112.743.034 2.024-1.224 1.235-1.213 1.38-1.307 1.863-1.215.307.059 2.676 2.39 2.795 2.75.168.51.082.646-1.252 1.967-.685.678-1.348 1.285-1.472 1.348-1.662.84-4.651.134-7.585-1.79-4.611-3.025-8.089-8.252-7.901-11.877.064-1.238.165-1.424 1.534-2.816 1.466-1.492 1.604-1.581 2.141-1.381z" fill="#205694"/></svg>