<svg width="24" height="24" fill="none" xmlns="http://www.w3.org/2000/svg"><path fill-rule="evenodd" clip-rule="evenodd" d="M5.037.06c-1.14.208-2.131.826-3.002 1.873C.985 3.195.374 4.707.109 6.697.003 7.493-.034 9.01.035 9.7c.313 3.113 1.942 6.124 4.948 9.148 2.864 2.88 5.66 4.515 8.63 5.047.53.095.75.108 1.82.106 1.308-.002 1.989-.067 2.93-.277 2.493-.556 4.561-2.043 5.295-3.806.709-1.705.21-3.576-1.242-4.661-.372-.278-1.97-1.15-2.484-1.354-1.197-.477-2.142-.434-2.992.138-.234.157-.673.578-1.458 1.401-.618.647-1.136 1.176-1.151 1.176a5.98 5.98 0 01-.44-.166c-2.24-.904-3.893-2.237-5.148-4.149-.346-.527-1.03-1.865-1.181-2.31L7.47 9.72l.399-.41c2.103-2.16 2.21-2.289 2.4-2.893.085-.27.102-.432.098-.893-.007-.62-.097-1.007-.405-1.737-.205-.489-1.022-1.94-1.277-2.273A3.95 3.95 0 006.623.134C6.293.044 5.363 0 5.037.06zm7.702.875v.935l.691.057c2.327.19 4.285 1.092 5.92 2.727 1.633 1.636 2.535 3.596 2.725 5.925l.056.691H24l-.032-.574c-.21-3.793-2.213-7.123-5.465-9.088C16.954.672 15.19.136 13.313.032L12.739 0v.935zm-6.51 1.046c.343.107.721.355.917.602.202.253.96 1.615 1.128 2.027.252.618.303 1.025.164 1.323-.045.096-.733.85-1.557 1.707-1.72 1.786-1.587 1.519-1.247 2.52.802 2.368 2.307 4.594 4.059 6.004 1.45 1.166 3.427 2.15 5.109 2.54.106.026.273-.133 1.61-1.524.904-.94 1.564-1.588 1.673-1.643.445-.228.932-.072 2.48.792.846.472 1.148.738 1.363 1.197.27.578.235 1.18-.11 1.872-.152.304-.28.474-.617.81-1.033 1.03-2.347 1.606-4.245 1.858-.716.095-2.5.08-3.092-.026-2.008-.359-3.913-1.341-6.07-3.13-.676-.561-2.307-2.216-2.885-2.926-1.67-2.054-2.567-3.836-2.93-5.818-.107-.58-.122-2.465-.026-3.164.248-1.808.832-3.17 1.775-4.143.808-.833 1.671-1.136 2.5-.878zm6.51 2.71v.937l.395.03a5.556 5.556 0 013.569 1.645 5.565 5.565 0 011.643 3.571l.03.396h1.874l-.033-.48a7.516 7.516 0 00-6.998-7.004l-.48-.033v.938zm0 3.753v.94l.251.03c.33.042.77.254 1.035.499.262.242.523.748.567 1.099l.032.258h1.877l-.03-.316a3.78 3.78 0 00-1.707-2.831 3.74 3.74 0 00-1.709-.589l-.316-.03v.94z" fill="#fff"/></svg>