<svg width="20" height="18" fill="none" xmlns="http://www.w3.org/2000/svg"><path fill-rule="evenodd" clip-rule="evenodd" d="M2.075.041c-.263.076-.517.44-.516.739 0 .312.033.351 1.438 1.756L4.35 3.888 2.997 5.24c-1.136 1.136-1.36 1.377-1.395 1.508-.024.086-.043.458-.043.827v.671l-.48.001c-.379 0-.51.016-.636.072a.774.774 0 00-.41.464c-.029.098-.038.868-.03 2.42l.012 2.277.092.148a.998.998 0 00.252.253l.158.104 6.354.012c4.441.008 6.483-.001 6.783-.031a6.725 6.725 0 002.384-.677c2.204-1.059 3.665-3.144 3.93-5.607.087-.81.005-1.133-.342-1.347-.14-.088-.189-.093-.891-.105l-.743-.012-1.524-1.511c-1.286-1.275-1.549-1.518-1.68-1.554-.1-.027-.66-.043-1.524-.043h-1.366l-1.526-1.514C9.085.318 8.822.076 8.691.04c-.2-.054-6.427-.053-6.616.001zm6.811 2.29l.781.78H5.798l-.78-.78-.782-.777h3.869l.781.778zm6.097 3.114l.78.778h-1.367c-.871 0-1.424.016-1.524.043-.128.035-.328.213-1.135 1.011l-.978.97H3.122v-.915L4.46 6l1.338-1.333h8.404l.78.779zm3.38 2.427c0 .163-.186.829-.33 1.18a5.396 5.396 0 01-1.317 1.898c-.743.706-1.583 1.147-2.644 1.39l-.379.086-6.067.012-6.068.012V9.804l4.876-.01 4.875-.01.157-.086c.086-.046.569-.497 1.074-1.002l.918-.917h4.905v.093z" fill="#A9AAAE"/><path fill="#A9AAAE" d="M0 16h20v1.6H0z"/></svg>