<svg width="21" height="20" fill="none" xmlns="http://www.w3.org/2000/svg"><path fill-rule="evenodd" clip-rule="evenodd" d="M10.058.1a1.204 1.204 0 00-.32.261c-.067.085-.72 1.372-1.452 2.86a150.645 150.645 0 01-1.369 2.747c-.02.022-1.451.246-3.179.497-3.061.445-3.146.46-3.327.588-.386.27-.523.798-.312 1.2.058.111.943 1.007 2.337 2.364 1.234 1.201 2.244 2.214 2.244 2.25 0 .035-.232 1.413-.515 3.06-.283 1.648-.515 3.07-.514 3.162.002.354.297.744.65.86.396.13.433.115 3.199-1.34a368.662 368.662 0 012.799-1.464l.225-.11 2.396 1.26c3.396 1.787 3.215 1.698 3.463 1.698.517 0 .967-.418.97-.9 0-.088-.23-1.51-.514-3.158a216.302 216.302 0 01-.515-3.067c0-.038 1.01-1.052 2.243-2.253 1.412-1.374 2.278-2.25 2.336-2.362.254-.49-.012-1.145-.535-1.32-.07-.023-1.466-.233-3.104-.468-1.638-.234-3.026-.441-3.085-.46-.088-.027-.357-.534-1.523-2.873C11.31.43 11.231.286 11.05.16a1.026 1.026 0 00-.992-.06zm1.519 5.124c.629 1.275 1.112 2.2 1.2 2.299a1 1 0 00.336.234c.104.037 1.186.21 2.405.383 1.219.173 2.274.33 2.344.348.124.032.076.084-1.595 1.705-.948.919-1.764 1.744-1.813 1.833a1.28 1.28 0 00-.117.313c-.018.098.113.968.38 2.518.224 1.303.397 2.38.384 2.392-.013.013-.968-.472-2.12-1.078-1.154-.606-2.184-1.123-2.289-1.15a.72.72 0 00-.37-.002c-.097.024-1.126.542-2.286 1.15-1.16.607-2.119 1.094-2.132 1.081-.013-.013.161-1.094.386-2.403.27-1.569.4-2.428.38-2.52a1.495 1.495 0 00-.11-.295c-.044-.086-.858-.911-1.809-1.834-1.66-1.61-1.725-1.678-1.606-1.71.069-.018 1.122-.175 2.341-.348 1.22-.173 2.302-.346 2.406-.384a.95.95 0 00.359-.266c.108-.127.537-.95 1.198-2.299.567-1.155 1.04-2.1 1.053-2.1.012 0 .496.96 1.075 2.133z" fill="#A9AAAE"/></svg>