<svg width="26" height="26" fill="none" xmlns="http://www.w3.org/2000/svg"><circle cx="13" cy="13" r="12.1" stroke="#37AEE2" stroke-width="1.8"/><path fill-rule="evenodd" clip-rule="evenodd" d="M12.458 16.62c-.538.49-1.07.972-1.597 1.458a.86.86 0 01-.657.25c-.18-.009-.28-.084-.336-.244-.403-1.174-.814-2.346-1.215-3.52-.04-.115-.098-.17-.221-.205-.952-.273-1.901-.551-2.85-.833a1.674 1.674 0 01-.404-.17c-.212-.133-.242-.342-.049-.494.18-.14.391-.257.609-.338 1.202-.445 2.41-.876 3.617-1.312 2.901-1.049 5.803-2.097 8.704-3.147.557-.201.989.078.937.64-.035.37-.137.736-.22 1.101-.643 2.846-1.289 5.69-1.933 8.536-.002.005-.002.01-.003.016-.158.651-.663.829-1.239.432-.999-.689-1.996-1.38-2.994-2.07-.047-.034-.096-.064-.15-.1zm-2.209.897c.016-.067.026-.098.03-.13.063-.64.13-1.279.185-1.92a.463.463 0 01.176-.345c1.514-1.273 3.024-2.552 4.535-3.828.43-.364.862-.725 1.287-1.092.045-.039.055-.113.08-.17-.065-.018-.139-.062-.195-.048a1.48 1.48 0 00-.374.15c-2.247 1.323-4.49 2.65-6.738 3.974-.114.067-.146.123-.1.252.355 1 .7 2.005 1.05 3.008.013.039.033.077.064.149z" fill="#37AEE2"/></svg>