<svg width="20" height="18" fill="none" xmlns="http://www.w3.org/2000/svg"><path fill-rule="evenodd" clip-rule="evenodd" d="M6.537.053c-1.766.318-3.15 1.544-3.636 3.219-.616 2.126.425 4.367 2.47 5.317.621.288 1.081.385 1.851.39.711.005 1.06-.05 1.615-.256 2.224-.823 3.443-3.205 2.79-5.453A4.546 4.546 0 008.358.133C7.974.037 6.89-.01 6.537.053zm6.182.837v.89l.202.027c.626.082 1.128.281 1.518.603a2.71 2.71 0 01.943 2.648c-.208.985-1.043 1.837-2.024 2.066a2.592 2.592 0 01-.458.065h-.181v1.827l.367-.029a4.59 4.59 0 003.404-1.986c1.172-1.745.99-4.009-.448-5.564-.74-.8-1.857-1.338-2.93-1.41L12.72 0v.89zM7.963 1.896c1.132.29 1.939 1.278 2.014 2.465.05.77-.233 1.481-.812 2.048-.546.536-1.14.78-1.9.78-.761 0-1.354-.244-1.9-.78a2.65 2.65 0 01-.763-1.351c-.32-1.513.714-2.99 2.26-3.228a3.069 3.069 0 011.1.066zM3.81 10.863a4.569 4.569 0 00-3.586 3.039c-.195.58-.224.86-.224 2.195 0 1.204.003 1.252.094 1.42.117.216.309.38.515.439.11.031 2.153.041 6.748.032l6.59-.012.185-.129c.101-.07.232-.213.291-.316.104-.184.107-.21.12-1.223.016-1.151-.03-1.682-.189-2.233a4.53 4.53 0 00-3.553-3.195c-.25-.045-1.017-.056-3.558-.053-1.78.002-3.326.018-3.433.036zm10.911.838v.88l.586.025c.66.028.947.09 1.364.299.534.266.956.69 1.222 1.229.202.409.28.83.28 1.518v.572H16.34V18l1.53-.012 1.531-.012.185-.129c.101-.07.232-.213.291-.316.104-.184.107-.21.12-1.223.015-1.151-.03-1.682-.189-2.233a4.53 4.53 0 00-3.553-3.195 7.013 7.013 0 00-.926-.058l-.608-.002v.88zm-4.037.988c.78.229 1.41.747 1.755 1.445.202.409.28.83.28 1.518v.572H1.81v-.593c0-.693.069-1.062.279-1.497a2.76 2.76 0 012.045-1.495c.14-.02 1.615-.034 3.279-.03 2.705.008 3.051.016 3.27.08z" fill="#A9AAAE"/></svg>