<svg width="25" height="26" fill="none" xmlns="http://www.w3.org/2000/svg"><path fill-rule="evenodd" clip-rule="evenodd" d="M12.802.019c5.816.025 8.426 1.92 9.073 2.517 2.145 1.86 3.332 5.985 2.532 12.507-.706 5.763-4.722 6.784-6.07 7.127-.132.034-.239.06-.314.085-.365.119-3.573.921-7.745.57a68.774 68.774 0 01-1.514 1.713c-.133.143-.258.285-.378.421-.602.684-1.063 1.21-1.768.99-.698-.216-.659-1.276-.659-1.276l.004-2.618h-.006c-6.1-1.716-6.01-8.044-5.942-11.421.07-3.377.724-6.1 2.585-7.962C5.943-.395 12.802.019 12.802.019zm-.107 1.835c4.92.022 7.277 1.503 7.823 2 1.815 1.553 2.74 5.272 2.064 10.72-.59 4.757-3.78 5.501-4.934 5.77-.127.03-.23.054-.302.077-.303.099-3.122.799-6.665.567 0 0-2.64 3.186-3.465 4.014-.129.129-.28.18-.381.156-.14-.034-.18-.203-.18-.448.003-.352.023-4.352.023-4.352-4.987-1.385-4.871-6.466-4.806-9.35l.007-.29c.058-2.82.588-5.131 2.162-6.685 2.828-2.562 8.654-2.179 8.654-2.179z" fill="#8D7CFF"/><path fill-rule="evenodd" clip-rule="evenodd" d="M12.902 8.437a.329.329 0 01.345-.312c.68.036 1.244.241 1.646.657.4.414.597.993.631 1.688a.329.329 0 01-.657.033c-.03-.595-.192-1-.447-1.264-.253-.261-.64-.427-1.207-.457a.329.329 0 01-.311-.345z" fill="#8D7CFF"/><path fill-rule="evenodd" clip-rule="evenodd" d="M12.403 6.665a.329.329 0 01.352-.304c1.381.1 2.493.573 3.303 1.457.801.875 1.182 1.964 1.154 3.241a.329.329 0 11-.657-.014c.024-1.126-.307-2.046-.982-2.783-.673-.734-1.613-1.154-2.866-1.245a.329.329 0 01-.304-.352z" fill="#8D7CFF"/><path fill-rule="evenodd" clip-rule="evenodd" d="M11.822 4.98a.329.329 0 01.332-.326c1.908.013 3.522.649 4.817 1.911 1.306 1.274 1.952 3.007 1.969 5.16a.329.329 0 11-.658.005c-.015-2.017-.616-3.568-1.77-4.694C15.347 5.9 13.9 5.324 12.149 5.312a.329.329 0 01-.327-.332z" fill="#8D7CFF"/><path d="M13.295 14.892s.463.039.712-.268l.485-.61c.234-.303.8-.497 1.352-.188.415.236.817.493 1.206.77.367.27 1.12.897 1.122.897.358.303.44.747.197 1.215l-.002.01c-.269.465-.61.885-1.01 1.243-.005.003-.005.005-.01.007-.347.291-.69.456-1.025.496a1.363 1.363 0 01-.586-.058l-.011-.015c-.517-.146-1.381-.512-2.82-1.305a16.792 16.792 0 01-2.369-1.565 12.44 12.44 0 01-1.065-.945l-.036-.036-.036-.036-.036-.036-.036-.036c-.335-.337-.65-.692-.945-1.065a16.807 16.807 0 01-1.565-2.369c-.793-1.439-1.159-2.302-1.305-2.82l-.016-.01a1.365 1.365 0 01-.066-.437.63.63 0 01.009-.15c.042-.335.207-.677.496-1.026.003-.005.005-.005.007-.01.359-.4.779-.74 1.244-1.01l.01-.002c.468-.243.912-.16 1.214.196.002.002.629.754.898 1.12.276.39.533.793.77 1.208.308.553.115 1.12-.188 1.352l-.61.486c-.309.249-.268.711-.268.711s.904 3.423 4.283 4.286z" fill="#8D7CFF"/></svg>