<svg width="26" height="26" fill="none" xmlns="http://www.w3.org/2000/svg"><circle cx="13" cy="13" r="12.1" stroke="#4E6BA4" stroke-width="1.8"/><path fill-rule="evenodd" clip-rule="evenodd" d="M12.828 17.962h.957s.288-.031.436-.188c.136-.144.132-.414.132-.414s-.02-1.265.576-1.452c.587-.183 1.342 1.223 2.14 1.764.605.41 1.064.32 1.064.32l2.137-.03s1.117-.068.587-.934c-.043-.07-.309-.641-1.588-1.813-1.34-1.226-1.16-1.027.453-3.149.983-1.29 1.376-2.08 1.253-2.417-.117-.322-.84-.237-.84-.237l-2.406.015s-.178-.024-.31.054c-.13.076-.212.254-.212.254s-.382 1-.889 1.85c-1.071 1.793-1.5 1.888-1.675 1.776-.407-.26-.306-1.042-.306-1.598 0-1.739.268-2.463-.52-2.651-.262-.062-.454-.103-1.123-.11-.858-.009-1.585.002-1.996.201-.274.132-.485.427-.357.444.16.02.52.095.71.352.247.33.238 1.073.238 1.073s.142 2.046-.33 2.3c-.325.175-.77-.18-1.725-1.809-.49-.833-.859-1.754-.859-1.754s-.07-.172-.198-.265c-.154-.111-.37-.147-.37-.147l-2.286.015s-.343.01-.469.157c-.112.13-.009.401-.009.401s1.79 4.13 3.817 6.21c1.858 1.907 3.968 1.782 3.968 1.782z" fill="#4E6BA4"/></svg>