<svg width="25" height="25" fill="none" xmlns="http://www.w3.org/2000/svg"><path d="M.104 12.387c0 2.184.57 4.315 1.654 6.194L0 25l6.57-1.723a12.383 12.383 0 005.921 1.508h.005c6.83 0 12.39-5.558 12.392-12.387a12.313 12.313 0 00-3.626-8.765A12.315 12.315 0 0012.496 0C5.666 0 .106 5.557.104 12.387zm3.912 5.87l-.245-.39a10.268 10.268 0 01-1.575-5.479C2.2 6.711 6.82 2.092 12.5 2.092a10.233 10.233 0 017.282 3.02 10.233 10.233 0 013.014 7.285c-.002 5.677-4.623 10.296-10.3 10.296h-.004a10.286 10.286 0 01-5.242-1.435l-.376-.223-3.899 1.022 1.041-3.8z" fill="#60D66A"/><path fill-rule="evenodd" clip-rule="evenodd" d="M9.399 7.209c-.232-.516-.476-.526-.697-.535-.18-.008-.387-.007-.593-.007-.207 0-.542.077-.826.387C7 7.364 6.2 8.113 6.2 9.636c0 1.524 1.11 2.996 1.265 3.203.154.206 2.142 3.432 5.289 4.673 2.615 1.032 3.148.826 3.715.775.568-.052 1.832-.749 2.09-1.472.258-.723.258-1.343.181-1.472-.077-.13-.284-.207-.594-.361-.31-.155-1.831-.904-2.115-1.008-.284-.103-.49-.155-.697.155-.207.31-.8 1.007-.98 1.214-.18.207-.361.233-.671.078-.31-.156-1.307-.482-2.49-1.537-.92-.82-1.542-1.834-1.723-2.144-.18-.31-.019-.478.136-.632.14-.139.31-.361.465-.542.154-.181.206-.31.31-.517.102-.206.05-.387-.027-.542-.077-.155-.679-1.686-.954-2.298z" fill="#60D66A"/></svg>