<svg width="34" height="24" fill="none" xmlns="http://www.w3.org/2000/svg"><path fill-rule="evenodd" clip-rule="evenodd" d="M3.527.07C3.081.2 2.65.825 2.65 1.338c.001.535.056.603 2.445 3.01l2.3 2.319-2.3 2.318c-1.931 1.946-2.312 2.36-2.372 2.584-.04.147-.073.785-.073 1.418v1.15l-.814.002c-.646 0-.87.027-1.083.124-.325.148-.6.461-.697.794-.049.169-.065 1.488-.051 4.15l.02 3.902.158.254c.086.14.279.336.427.434l.27.179 10.8.02c7.55.014 11.021-.002 11.532-.053 1.475-.15 2.67-.492 4.053-1.162 3.746-1.814 6.23-5.389 6.68-9.61.148-1.389.009-1.943-.58-2.31-.24-.15-.322-.16-1.516-.18l-1.262-.02-2.591-2.592c-2.187-2.185-2.633-2.602-2.857-2.663-.168-.046-1.123-.073-2.59-.073h-2.323l-2.593-2.596C15.444.546 14.999.13 14.774.07c-.34-.094-10.926-.092-11.247 0zm11.58 3.928l1.327 1.334H9.857L8.529 3.998 7.202 2.663h6.577l1.328 1.335zM25.47 9.334l1.327 1.334h-2.324c-1.482 0-2.421.027-2.59.074-.22.06-.559.365-1.93 1.734l-1.664 1.66H5.307V12.57l2.275-2.285L9.857 8h14.286l1.328 1.334zm5.747 4.16c0 .28-.317 1.421-.561 2.024-.497 1.223-1.228 2.285-2.24 3.254-1.263 1.21-2.69 1.966-4.494 2.382l-.645.148-10.314.02-10.315.021v-4.537l8.288-.017 8.289-.018.265-.145c.147-.08.968-.853 1.827-1.718l1.56-1.572h8.34v.158z" fill="#205694"/></svg>