<svg width="102" height="177" fill="none" xmlns="http://www.w3.org/2000/svg"><circle cx="14.5" cy="14.5" r="14.5" fill="#FFC42C"/><circle cx="14.5" cy="14.5" r="14.5" fill="url(#paint0_linear_7_35)" fill-opacity=".4"/><path d="M14.074 11.255L11.809 12.8v-1.755l2.49-1.77h1.785V20h-2.01v-8.745z" fill="#205694"/><circle cx="48.5" cy="40.5" r="14.5" fill="#D6E4F1"/><circle cx="48.5" cy="40.5" r="14.5" fill="url(#paint1_linear_7_35)" fill-opacity=".4"/><path d="M44.36 45.64l4.05-4.275c1.09-1.15 1.635-2.165 1.635-3.045 0-.51-.14-.91-.42-1.2-.28-.29-.675-.435-1.185-.435-1.11 0-1.75.71-1.92 2.13h-1.83c.07-1.18.435-2.09 1.095-2.73.67-.64 1.575-.96 2.715-.96 1.1 0 1.965.29 2.595.87.63.58.945 1.345.945 2.295 0 .66-.18 1.3-.54 1.92-.35.61-.87 1.25-1.56 1.92l-2.385 2.325h4.56V46H44.36v-.36z" fill="#205694"/><circle cx="58.5" cy="77.5" r="14.5" fill="#D6E4F1"/><circle cx="58.5" cy="77.5" r="14.5" fill="url(#paint2_linear_7_35)" fill-opacity=".4"/><path d="M57.858 83.15c-1.25 0-2.225-.315-2.925-.945-.7-.63-1.07-1.47-1.11-2.52h1.815c.06.6.265 1.08.615 1.44.35.35.87.525 1.56.525 1.36 0 2.04-.58 2.04-1.74 0-1.17-.645-1.755-1.935-1.755h-.825V76.73h.765c1.19 0 1.785-.525 1.785-1.575 0-.46-.145-.825-.435-1.095-.28-.28-.69-.42-1.23-.42-.56 0-1.02.16-1.38.48-.35.31-.555.74-.615 1.29h-1.77c.06-.96.425-1.745 1.095-2.355.68-.62 1.58-.93 2.7-.93 1.09 0 1.95.275 2.58.825.64.54.96 1.225.96 2.055 0 1.11-.58 1.89-1.74 2.34.65.15 1.155.445 1.515.885.37.44.555 1.01.555 1.71 0 .99-.365 1.775-1.095 2.355-.72.57-1.695.855-2.925.855z" fill="#205694"/><circle cx="67.5" cy="125.5" r="14.5" fill="#D6E4F1"/><circle cx="67.5" cy="125.5" r="14.5" fill="url(#paint3_linear_7_35)" fill-opacity=".4"/><path d="M67.941 128.825h-5.31v-.705l4.74-7.845h2.505v7.065h1.44v1.485h-1.44V131h-1.935v-2.175zm.03-1.485v-5.55l-3.21 5.55h3.21z" fill="#205694"/><circle cx="87.5" cy="162.5" r="14.5" fill="#D6E4F1"/><circle cx="87.5" cy="162.5" r="14.5" fill="url(#paint4_linear_7_35)" fill-opacity=".4"/><path d="M86.802 168.15c-1.21 0-2.135-.295-2.775-.885-.64-.59-.99-1.37-1.05-2.34h1.86c.09.56.275.98.555 1.26.29.28.755.42 1.395.42.61 0 1.085-.195 1.425-.585.34-.39.51-.92.51-1.59 0-.65-.175-1.165-.525-1.545-.34-.38-.81-.57-1.41-.57-.95 0-1.695.31-2.235.93h-1.02l.09-5.97h6.51v1.575h-4.98l-.015 2.91c.52-.6 1.29-.9 2.31-.9.98 0 1.775.325 2.385.975.61.65.915 1.525.915 2.625 0 1.13-.365 2.03-1.095 2.7-.73.66-1.68.99-2.85.99z" fill="#205694"/><path d="M30.032 51.5l.397.304a.5.5 0 00-.454-.8l.057.496zm8 31.5l.427.26a.5.5 0 00-.238-.723l-.189.463zm7.5 43.5l.447.224a.5.5 0 00-.163-.636l-.284.412zm21.5 42l-4.663-3.403-.616 5.74 5.28-2.337zM.533 29.97c-.02.346-.032.703-.033 1.071l1 .003c.001-.35.012-.688.031-1.014l-.998-.06zm.072 3.214c.068.688.172 1.398.314 2.121l.982-.194a21.395 21.395 0 01-.3-2.026l-.996.1zm.83 4.201c.2.672.437 1.347.714 2.021l.925-.38a20.712 20.712 0 01-.682-1.927l-.958.286zm1.629 3.961c.333.62.704 1.234 1.115 1.835l.825-.565c-.39-.57-.742-1.153-1.06-1.743l-.88.473zm2.426 3.537c.46.533.957 1.05 1.494 1.546l.678-.734c-.508-.47-.98-.96-1.415-1.465l-.757.653zM8.644 47.8c.562.413 1.158.806 1.791 1.175l.504-.864a19.03 19.03 0 01-1.702-1.117l-.593.806zm3.699 2.16c.63.286 1.291.551 1.983.792l.329-.945a22.09 22.09 0 01-1.898-.758l-.414.91zm4.034 1.407c.668.171 1.362.321 2.081.449l.175-.985a27.4 27.4 0 01-2.008-.433l-.248.97zm4.184.747c.684.075 1.389.13 2.116.165l.049-.999a34.584 34.584 0 01-2.057-.16l-.108.994zm4.236.21a44.559 44.559 0 002.117-.06l-.052-.999a43.43 43.43 0 01-2.07.06l.005 1zm4.226-.215c.351-.034.707-.071 1.066-.112l-.114-.994c-.353.04-.702.077-1.047.11l.095.995zm.613-.913c-.196.254-.392.52-.587.796l.816.578c.188-.266.377-.521.564-.766l-.793-.608zm-1.672 2.451a29.398 29.398 0 00-.97 1.725l.888.46c.301-.58.615-1.136.937-1.666l-.855-.519zm-1.82 3.513c-.26.597-.503 1.212-.724 1.842l.943.331c.213-.606.447-1.198.698-1.775l-.917-.398zm-1.308 3.738a22.917 22.917 0 00-.427 1.94l.985.172c.11-.626.247-1.246.409-1.856l-.967-.257zm-.675 3.918a18.69 18.69 0 00-.046 1.996l1-.031a17.52 17.52 0 01.043-1.89l-.997-.075zm.133 3.99c.098.655.237 1.31.42 1.961l.963-.271a14.963 14.963 0 01-.394-1.838l-.99.148zm1.09 3.856c.259.603.56 1.2.907 1.787l.86-.508a14.586 14.586 0 01-.847-1.673l-.92.394zm2.032 3.449c.395.513.829 1.016 1.305 1.509l.719-.695c-.45-.466-.86-.941-1.231-1.424l-.793.61zm2.764 2.873c.49.415 1.013.82 1.572 1.214l.577-.817a21.59 21.59 0 01-1.502-1.16l-.647.763zm3.23 2.29c.549.328 1.125.646 1.73.955l.455-.89c-.587-.3-1.143-.608-1.672-.923l-.512.859zm3.512 1.799c.301.132.608.262.921.39l.378-.926a36.82 36.82 0 01-.896-.38l-.403.916zm.684-.334c-.175.287-.35.585-.526.894l.87.493c.17-.3.34-.589.509-.865l-.853-.522zm-1.49 2.723a39.298 39.298 0 00-.861 1.877l.92.393c.272-.637.553-1.248.839-1.83l-.898-.44zm-1.626 3.8a41.834 41.834 0 00-.668 1.954l.954.3c.205-.654.423-1.29.652-1.908l-.938-.347zm-1.239 3.94a41.99 41.99 0 00-.47 2.013l.98.202c.137-.666.29-1.32.458-1.963l-.968-.251zm-.833 4.05c-.102.676-.187 1.36-.252 2.053l.996.093c.063-.672.145-1.339.245-1.996l-.99-.15zm-.385 4.12a33.11 33.11 0 00-.007 2.072l1-.028a32.13 32.13 0 01.007-2.01l-1-.034zm.119 4.142c.065.685.152 1.371.266 2.059l.986-.162a29.067 29.067 0 01-.257-1.991l-.995.094zm.677 4.095c.16.668.346 1.335.56 2l.951-.305a26.822 26.822 0 01-.539-1.928l-.972.233zm1.269 3.954c.259.636.544 1.268.859 1.896l.894-.447a26.089 26.089 0 01-.827-1.826l-.926.377zm1.86 3.718a27.78 27.78 0 001.134 1.739l.816-.578a26.764 26.764 0 01-1.093-1.675l-.857.514zm2.393 3.388c.432.525.89 1.044 1.373 1.556l.727-.688c-.468-.494-.91-.996-1.327-1.503l-.773.635zm2.846 3.014c.497.46 1.017.914 1.561 1.36l.634-.773a32.77 32.77 0 01-1.515-1.32l-.68.733zm3.198 2.625c.28.203.564.405.854.604l.566-.824a36.75 36.75 0 01-.83-.588l-.59.808zm.69-.032c-.143.287-.285.58-.426.879l.904.426c.138-.292.277-.578.416-.857l-.894-.448zm-1.224 2.679c-.246.59-.486 1.2-.716 1.825l.939.345c.225-.612.459-1.208.7-1.785l-.923-.385zm-1.355 3.683a44.929 44.929 0 00-.56 1.885l.965.263c.171-.625.354-1.24.548-1.843l-.953-.305zm-1.035 3.791a41.648 41.648 0 00-.389 1.926l.985.175c.112-.633.239-1.261.379-1.881l-.975-.22zm-.684 3.871c-.082.65-.147 1.304-.193 1.961l.997.07a35.42 35.42 0 01.188-1.906l-.992-.125zm-.276 3.931a30.76 30.76 0 00.039 1.973l.998-.052a29.697 29.697 0 01-.037-1.909l-1-.012zm.21 3.943c.08.656.186 1.308.317 1.955l.98-.198a24.716 24.716 0 01-.304-1.879l-.993.122zm.79 3.881c.184.635.396 1.262.638 1.881l.931-.364a21.56 21.56 0 01-.61-1.796l-.96.279zm1.45 3.698c.296.588.624 1.165.983 1.731l.844-.537a19.267 19.267 0 01-.935-1.645l-.893.451zm2.133 3.354c.404.514.838 1.015 1.304 1.501l.722-.692a19.184 19.184 0 01-1.24-1.427l-.786.618zm2.745 2.868c.491.424 1.01.834 1.56 1.228l.583-.812a20.949 20.949 0 01-1.49-1.173l-.653.757zm3.215 2.317c.552.332 1.13.651 1.734.955l.45-.894a25.37 25.37 0 01-1.669-.918l-.515.857zm3.53 1.783c.595.25 1.21.487 1.85.711l.33-.943a31.739 31.739 0 01-1.791-.69l-.388.922zm3.716 1.309a40.01 40.01 0 001.892.5l.233-.972a40.251 40.251 0 01-1.846-.488l-.28.96zm3.813.914a47.68 47.68 0 001.952.336l.15-.989a49.089 49.089 0 01-1.912-.328l-.19.981z" fill="#fff"/><path d="M30.032 51.5l.397.304a.5.5 0 00-.454-.8l.057.496zm8 31.5l.427.26a.5.5 0 00-.238-.723l-.189.463zm7.5 43.5l.447.224a.5.5 0 00-.163-.636l-.284.412zm21.5 42l-4.663-3.403-.616 5.74 5.28-2.337zM.533 29.97c-.02.346-.032.703-.033 1.071l1 .003c.001-.35.012-.688.031-1.014l-.998-.06zm.072 3.214c.068.688.172 1.398.314 2.121l.982-.194a21.395 21.395 0 01-.3-2.026l-.996.1zm.83 4.201c.2.672.437 1.347.714 2.021l.925-.38a20.712 20.712 0 01-.682-1.927l-.958.286zm1.629 3.961c.333.62.704 1.234 1.115 1.835l.825-.565c-.39-.57-.742-1.153-1.06-1.743l-.88.473zm2.426 3.537c.46.533.957 1.05 1.494 1.546l.678-.734c-.508-.47-.98-.96-1.415-1.465l-.757.653zM8.644 47.8c.562.413 1.158.806 1.791 1.175l.504-.864a19.03 19.03 0 01-1.702-1.117l-.593.806zm3.699 2.16c.63.286 1.291.551 1.983.792l.329-.945a22.09 22.09 0 01-1.898-.758l-.414.91zm4.034 1.407c.668.171 1.362.321 2.081.449l.175-.985a27.4 27.4 0 01-2.008-.433l-.248.97zm4.184.747c.684.075 1.389.13 2.116.165l.049-.999a34.584 34.584 0 01-2.057-.16l-.108.994zm4.236.21a44.559 44.559 0 002.117-.06l-.052-.999a43.43 43.43 0 01-2.07.06l.005 1zm4.226-.215c.351-.034.707-.071 1.066-.112l-.114-.994c-.353.04-.702.077-1.047.11l.095.995zm.613-.913c-.196.254-.392.52-.587.796l.816.578c.188-.266.377-.521.564-.766l-.793-.608zm-1.672 2.451a29.398 29.398 0 00-.97 1.725l.888.46c.301-.58.615-1.136.937-1.666l-.855-.519zm-1.82 3.513c-.26.597-.503 1.212-.724 1.842l.943.331c.213-.606.447-1.198.698-1.775l-.917-.398zm-1.308 3.738a22.917 22.917 0 00-.427 1.94l.985.172c.11-.626.247-1.246.409-1.856l-.967-.257zm-.675 3.918a18.69 18.69 0 00-.046 1.996l1-.031a17.52 17.52 0 01.043-1.89l-.997-.075zm.133 3.99c.098.655.237 1.31.42 1.961l.963-.271a14.963 14.963 0 01-.394-1.838l-.99.148zm1.09 3.856c.259.603.56 1.2.907 1.787l.86-.508a14.586 14.586 0 01-.847-1.673l-.92.394zm2.032 3.449c.395.513.829 1.016 1.305 1.509l.719-.695c-.45-.466-.86-.941-1.231-1.424l-.793.61zm2.764 2.873c.49.415 1.013.82 1.572 1.214l.577-.817a21.59 21.59 0 01-1.502-1.16l-.647.763zm3.23 2.29c.549.328 1.125.646 1.73.955l.455-.89c-.587-.3-1.143-.608-1.672-.923l-.512.859zm3.512 1.799c.301.132.608.262.921.39l.378-.926a36.82 36.82 0 01-.896-.38l-.403.916zm.684-.334c-.175.287-.35.585-.526.894l.87.493c.17-.3.34-.589.509-.865l-.853-.522zm-1.49 2.723a39.298 39.298 0 00-.861 1.877l.92.393c.272-.637.553-1.248.839-1.83l-.898-.44zm-1.626 3.8a41.834 41.834 0 00-.668 1.954l.954.3c.205-.654.423-1.29.652-1.908l-.938-.347zm-1.239 3.94a41.99 41.99 0 00-.47 2.013l.98.202c.137-.666.29-1.32.458-1.963l-.968-.251zm-.833 4.05c-.102.676-.187 1.36-.252 2.053l.996.093c.063-.672.145-1.339.245-1.996l-.99-.15zm-.385 4.12a33.11 33.11 0 00-.007 2.072l1-.028a32.13 32.13 0 01.007-2.01l-1-.034zm.119 4.142c.065.685.152 1.371.266 2.059l.986-.162a29.067 29.067 0 01-.257-1.991l-.995.094zm.677 4.095c.16.668.346 1.335.56 2l.951-.305a26.822 26.822 0 01-.539-1.928l-.972.233zm1.269 3.954c.259.636.544 1.268.859 1.896l.894-.447a26.089 26.089 0 01-.827-1.826l-.926.377zm1.86 3.718a27.78 27.78 0 001.134 1.739l.816-.578a26.764 26.764 0 01-1.093-1.675l-.857.514zm2.393 3.388c.432.525.89 1.044 1.373 1.556l.727-.688c-.468-.494-.91-.996-1.327-1.503l-.773.635zm2.846 3.014c.497.46 1.017.914 1.561 1.36l.634-.773a32.77 32.77 0 01-1.515-1.32l-.68.733zm3.198 2.625c.28.203.564.405.854.604l.566-.824a36.75 36.75 0 01-.83-.588l-.59.808zm.69-.032c-.143.287-.285.58-.426.879l.904.426c.138-.292.277-.578.416-.857l-.894-.448zm-1.224 2.679c-.246.59-.486 1.2-.716 1.825l.939.345c.225-.612.459-1.208.7-1.785l-.923-.385zm-1.355 3.683a44.929 44.929 0 00-.56 1.885l.965.263c.171-.625.354-1.24.548-1.843l-.953-.305zm-1.035 3.791a41.648 41.648 0 00-.389 1.926l.985.175c.112-.633.239-1.261.379-1.881l-.975-.22zm-.684 3.871c-.082.65-.147 1.304-.193 1.961l.997.07a35.42 35.42 0 01.188-1.906l-.992-.125zm-.276 3.931a30.76 30.76 0 00.039 1.973l.998-.052a29.697 29.697 0 01-.037-1.909l-1-.012zm.21 3.943c.08.656.186 1.308.317 1.955l.98-.198a24.716 24.716 0 01-.304-1.879l-.993.122zm.79 3.881c.184.635.396 1.262.638 1.881l.931-.364a21.56 21.56 0 01-.61-1.796l-.96.279zm1.45 3.698c.296.588.624 1.165.983 1.731l.844-.537a19.267 19.267 0 01-.935-1.645l-.893.451zm2.133 3.354c.404.514.838 1.015 1.304 1.501l.722-.692a19.184 19.184 0 01-1.24-1.427l-.786.618zm2.745 2.868c.491.424 1.01.834 1.56 1.228l.583-.812a20.949 20.949 0 01-1.49-1.173l-.653.757zm3.215 2.317c.552.332 1.13.651 1.734.955l.45-.894a25.37 25.37 0 01-1.669-.918l-.515.857zm3.53 1.783c.595.25 1.21.487 1.85.711l.33-.943a31.739 31.739 0 01-1.791-.69l-.388.922zm3.716 1.309a40.01 40.01 0 001.892.5l.233-.972a40.251 40.251 0 01-1.846-.488l-.28.96zm3.813.914a47.68 47.68 0 001.952.336l.15-.989a49.089 49.089 0 01-1.912-.328l-.19.981z" fill="url(#paint5_linear_7_35)"/><defs><linearGradient id="paint0_linear_7_35" x1="14.5" y1="0" x2="14.5" y2="29" gradientUnits="userSpaceOnUse"><stop stop-color="#fff"/><stop offset="1" stop-color="#fff" stop-opacity="0"/></linearGradient><linearGradient id="paint1_linear_7_35" x1="48.5" y1="26" x2="48.5" y2="55" gradientUnits="userSpaceOnUse"><stop stop-color="#fff"/><stop offset="1" stop-color="#fff" stop-opacity="0"/></linearGradient><linearGradient id="paint2_linear_7_35" x1="58.5" y1="63" x2="58.5" y2="92" gradientUnits="userSpaceOnUse"><stop stop-color="#fff"/><stop offset="1" stop-color="#fff" stop-opacity="0"/></linearGradient><linearGradient id="paint3_linear_7_35" x1="67.5" y1="111" x2="67.5" y2="140" gradientUnits="userSpaceOnUse"><stop stop-color="#fff"/><stop offset="1" stop-color="#fff" stop-opacity="0"/></linearGradient><linearGradient id="paint4_linear_7_35" x1="87.5" y1="148" x2="87.5" y2="177" gradientUnits="userSpaceOnUse"><stop stop-color="#fff"/><stop offset="1" stop-color="#fff" stop-opacity="0"/></linearGradient><linearGradient id="paint5_linear_7_35" x1="34.016" y1="30" x2="34.016" y2="168.5" gradientUnits="userSpaceOnUse"><stop stop-color="#FFC530"/><stop offset="1" stop-color="#fff" stop-opacity="0"/></linearGradient></defs></svg>